<?xml version="1.0" encoding="utf-8"?>
<!-- Generator: Adobe Illustrator 26.0.1, SVG Export Plug-In . SVG Version: 6.00 Build 0)  -->
<svg version="1.1" id="Layer_1" xmlns="http://www.w3.org/2000/svg" xmlns:xlink="http://www.w3.org/1999/xlink" x="0px" y="0px"
	 viewBox="0 0 120 120" style="enable-background:new 0 0 120 120;" xml:space="preserve">
<style type="text/css">
	.st0{fill-rule:evenodd;clip-rule:evenodd;fill:#4ABF76;}
	.st1{fill:#FFFFFF;}
</style>
<g>
	<path id="Shape" class="st0" d="M120,108c0,6.6-5.4,12-12,12H12c-6.6,0-12-5.4-12-12V12C0,5.4,5.4,0,12,0h96c6.6,0,12,5.4,12,12
		V108L120,108z"/>
</g>
<g>
	<path class="st1" d="M104.1,28l-7.8-5.9c-1-0.8-2.2-1.2-3.6-1.2H66v-3c0-1.6-1.3-3-3-3h-6c-1.6,0-3,1.4-3,3v3H24c-1.6,0-3,1.4-3,3
		v6.3V36c0,1.6,1.4,3,3,3h30h12h26.5c1.3,0,2.5-0.4,3.6-1.2l7.8-5.9C105.3,30.9,105.3,29.1,104.1,28z"/>
	<path class="st1" d="M96,54H66v-4.5c0-0.9-0.6-1.5-1.5-1.5h-9c-0.9,0-1.5,0.6-1.5,1.5V54H27.4c-1.3,0-2.6,0.4-3.6,1.2L16,61
		c-1.3,0.9-1.3,2.8,0,3.9l7.8,5.9c1.1,0.8,2.2,1.2,3.6,1.2H54h12h30c1.7,0,3-1.4,3-3v-6.3V57C99,55.4,97.6,54,96,54z"/>
	<path class="st1" d="M66,92.4v-9.9c0-0.9-0.6-1.5-1.5-1.5h-9c-0.9,0-1.5,0.6-1.5,1.5v9.9c-6,1.7-9.3,5.2-10.4,9.8
		c-0.3,1.4,0.8,2.9,2.2,2.9h28.4c1.5,0,2.6-1.4,2.2-2.9C75.3,97.6,72,94,66,92.4z"/>
</g>
</svg>